<?xml version="1.0"?>
<svg xmlns="http://www.w3.org/2000/svg" xmlns:xlink="http://www.w3.org/1999/xlink" version="1.1" id="Layer_1" x="0px" y="0px" viewBox="0 0 511.999 511.999" style="enable-background:new 0 0 511.999 511.999;" xml:space="preserve" width="512px" height="512px" class=""><g><g>
	<g>
		<g>
			<path d="M361.929,125.086c29.21,0,52.966-23.755,52.966-52.966c0-29.21-23.755-52.966-52.966-52.966S308.963,42.91,308.963,72.12     C308.963,101.331,332.718,125.086,361.929,125.086z" data-original="#000000" class="active-path" data-old_color="#ffffff" fill="#ffffff"/>
			<path d="M81.239,97.628c3.046-3.637,6.991-6.241,11.379-7.804l-50.714-4.44c-2.331-0.238-4.643,0.521-6.444,2.039     c-1.792,1.501-2.913,3.655-3.116,5.985L0.034,462.764c-0.424,4.855,3.16,9.137,8.024,9.56l98.922,8.66L75.13,116.978     C74.504,110.04,76.737,102.978,81.239,97.628z" data-original="#000000" class="active-path" data-old_color="#ffffff" fill="#ffffff"/>
			<path d="M511.965,450.94L479.656,81.594c-0.433-4.855-4.714-8.483-9.56-8.024l-37.791,3.302     c-2.454,36.723-33.042,65.871-70.373,65.871c-16.305,0-31.294-5.579-43.246-14.901l-29.961,29.97     c-1.73,1.721-3.981,2.586-6.241,2.586s-4.52-0.865-6.241-2.586c-3.452-3.452-3.452-9.039,0-12.482l29.97-29.978     c-5.95-7.68-10.372-16.605-12.774-26.324l-192.697,16.852c-2.339,0.212-4.493,1.324-5.994,3.125     c-1.51,1.792-2.242,4.105-2.03,6.435l32.318,369.346c0.406,4.59,4.255,8.06,8.783,8.06c0.256,0,0.512-0.009,0.777-0.035     L503.941,460.5C508.796,460.077,512.389,455.795,511.965,450.94z M434.371,316.849c0.433,4.864-3.169,9.154-8.015,9.569     l-17.593,1.545c-0.265,0.026-0.521,0.035-0.786,0.035c-4.52,0-8.377-3.46-8.784-8.051c-0.424-4.864,3.169-9.145,8.024-9.569     l17.585-1.545C429.816,308.419,433.938,312.012,434.371,316.849z M429.754,264.104c0.424,4.855-3.16,9.137-8.024,9.56     l-61.564,5.385c-0.256,0.026-0.512,0.035-0.768,0.035c-4.529,0-8.386-3.46-8.792-8.06c-0.415-4.855,3.169-9.137,8.033-9.56     l61.555-5.385C425.031,255.639,429.321,259.249,429.754,264.104z M373.584,331.044l-87.949,7.689     c-0.256,0.026-0.512,0.035-0.777,0.035c-4.52,0-8.386-3.469-8.783-8.06c-0.424-4.855,3.169-9.137,8.024-9.56l87.949-7.689     c4.82-0.406,9.137,3.169,9.56,8.024C382.032,326.339,378.448,330.62,373.584,331.044z M389.2,205.621l26.377-2.313     c4.829-0.468,9.128,3.178,9.56,8.024c0.424,4.855-3.169,9.145-8.024,9.56l-26.386,2.313c-0.256,0.026-0.512,0.035-0.777,0.035     c-4.52,0-8.377-3.469-8.783-8.06C380.752,210.327,384.336,206.045,389.2,205.621z M292.467,214.087l61.546-5.385     c4.829-0.433,9.128,3.169,9.56,8.024c0.424,4.855-3.16,9.137-8.024,9.56l-61.555,5.385c-0.256,0.026-0.512,0.035-0.777,0.035     c-4.52,0-8.377-3.469-8.784-8.06C284.019,218.792,287.603,214.511,292.467,214.087z M170.108,233.649     c-0.424-4.855,3.169-9.137,8.024-9.56l79.148-6.921c4.758-0.441,9.137,3.169,9.56,8.024c0.424,4.846-3.16,9.137-8.024,9.56     l-79.148,6.921c-0.256,0.026-0.512,0.035-0.777,0.035C174.372,241.709,170.514,238.239,170.108,233.649z M174.734,286.411     c-0.424-4.855,3.16-9.137,8.024-9.56l26.377-2.304c4.899-0.406,9.137,3.169,9.56,8.024c0.424,4.846-3.16,9.137-8.024,9.56     l-26.377,2.304c-0.265,0.026-0.521,0.035-0.777,0.035C178.989,294.471,175.14,291.011,174.734,286.411z M219.904,397.657     l-26.377,2.313c-0.265,0.018-0.521,0.026-0.777,0.026c-4.529,0-8.386-3.46-8.783-8.06c-0.424-4.846,3.16-9.137,8.024-9.56     l26.377-2.304c4.758-0.433,9.137,3.169,9.56,8.024C228.352,392.952,224.768,397.233,219.904,397.657z M232.881,343.349     l-43.979,3.849c-0.256,0.026-0.512,0.035-0.777,0.035c-4.52,0-8.386-3.469-8.783-8.06c-0.424-4.855,3.16-9.137,8.024-9.56     l43.979-3.849c4.864-0.441,9.145,3.178,9.56,8.024C241.329,338.644,237.736,342.934,232.881,343.349z M236.288,281.027     c-0.424-4.855,3.169-9.137,8.024-9.56l61.564-5.385c4.802-0.477,9.128,3.169,9.56,8.024c0.424,4.855-3.16,9.137-8.024,9.56     l-61.564,5.385c-0.256,0.026-0.512,0.035-0.777,0.035C240.552,289.086,236.695,285.617,236.288,281.027z M290.26,391.504     l-35.178,3.072c-0.256,0.027-0.512,0.035-0.777,0.035c-4.52,0-8.377-3.469-8.783-8.06c-0.424-4.855,3.169-9.137,8.024-9.56     l35.178-3.081c4.891-0.424,9.137,3.178,9.56,8.033C298.708,386.79,295.116,391.08,290.26,391.504z M430.963,379.189l-87.94,7.698     c-0.256,0.026-0.521,0.035-0.777,0.035c-4.529,0-8.377-3.469-8.783-8.06c-0.424-4.855,3.16-9.137,8.024-9.56l87.94-7.698     c4.855-0.468,9.128,3.169,9.56,8.024C439.411,374.484,435.827,378.766,430.963,379.189z" data-original="#000000" class="active-path" data-old_color="#ffffff" fill="#ffffff"/>
		</g>
	</g>
</g></g> </svg>
